<?xml version="1.0" encoding="utf-8"?>
<!-- Generator: Adobe Illustrator 21.1.0, SVG Export Plug-In . SVG Version: 6.00 Build 0)  -->
<svg version="1.1" id="Layer_1" xmlns="http://www.w3.org/2000/svg" xmlns:xlink="http://www.w3.org/1999/xlink" x="0px" y="0px"
	 viewBox="0 0 400 400" style="enable-background:new 0 0 400 400;" xml:space="preserve">
<style type="text/css">
	.st0{fill:#1A1A1A;}
</style>
<g id="Layer_x0020_1">
	<polygon class="st0" points="9,226.9 12.8,216.8 12.8,216.8 19.4,199.7 43.8,163.6 64.3,150.4 72.7,149.7 73.6,146 101.6,125.4 
		125.7,119.9 151.2,122.2 191.4,122 225.6,116.9 238.8,110.1 247.4,110.6 260.7,113 301.2,108.5 310.1,105.4 324.2,98.6 329,98.1 
		331.5,90.2 339.5,79.3 341.6,81 343.5,91.4 344.1,92.7 349.6,86.5 359,80.4 361,84 358,91.8 357.1,99.9 358.7,100.5 368.8,112.7 
		373,123.8 373.9,131.2 379.3,139.7 379.9,140.4 379.9,140.4 390.8,151.9 391.9,156.6 390.9,157.3 390.9,157.3 384.5,161.3 
		378.8,162.9 378.1,163.1 378.1,163.1 374.6,164 367.7,161.7 354.3,154.9 345.4,158.4 333.6,175.1 325.7,181.2 318.7,175.9 
		313.3,177.9 307.5,185.4 307.5,186.2 299.8,196.6 285,207.2 284.4,208.7 284.3,207.4 281.3,215.2 276.5,262.7 277.7,277.5 
		286.3,294.6 296.5,300.7 298.6,306.7 297.3,307.1 297.3,307.2 296.2,307.5 296.2,307.5 294.2,308.2 293.8,308.2 293.8,308.2 
		291.5,308.3 291.5,308.3 276.1,309.1 273.3,307 269.1,296.3 261.4,287 261.2,283.1 261.9,277 261.9,277 262.2,274.7 259.1,258.7 
		253.3,234.5 252.9,233.3 249.5,248.7 246.3,262.8 246.3,262.8 245.4,266.8 244.3,280.4 247.1,290.3 255.3,292.1 259.2,297.2 
		259.5,302.4 253.1,304 253.1,304 251.4,304.5 251.4,304.5 251,304.6 237.4,304.3 235.3,298.3 230.2,289.6 230.2,289.6 229.8,289 
		231.3,282.3 232.1,261.3 232.6,227.6 233.7,213.7 222.8,213.7 181.1,212.1 152.1,209.5 148,228.2 138.2,245.3 138.2,245.3 
		136.8,247.9 127.1,261.9 127,268.5 136.9,286 141.8,293.2 144.6,295.6 154.3,298.3 161.5,306.6 159.8,308.5 143.9,308.4 
		134.8,306.6 132.5,296.7 119,282 108.4,269.4 104.9,263 105.5,256.9 111.9,248.2 110.9,233 99.9,244.4 90.3,255.5 90.3,255.5 
		88.8,257.2 74,268.4 81.9,298.6 85.3,303.7 96.7,305.4 103.5,314.7 100.3,317.4 100.3,317.4 99.6,317.9 98.8,317.8 98.8,317.8 
		92.8,316.9 92.6,317.5 92.6,317.5 91.6,320 91.4,320.1 91.4,320.1 87.1,320.7 76.5,317.7 72.9,309.1 69.1,305.4 60.5,279.1 
		57.8,261.3 61.3,258.1 68.5,249 71,236.6 68.2,222.5 68.2,222.5 65,206.7 66.9,173.4 68.4,167.4 64.9,170.5 55.6,192.3 44.6,233.1 
		21.8,257.3 14.2,257.7 8.1,245.3 	"/>
</g>
</svg>
